<svg xmlns="http://www.w3.org/2000/svg" version="1.1" xmlns:xlink="http://www.w3.org/1999/xlink" xmlns:svgjs="http://svgjs.dev/svgjs" width="1920" height="1080" preserveAspectRatio="none" viewBox="0 0 1920 1080"><g mask="url(&quot;#SvgjsMask1050&quot;)" fill="none"><rect width="1920" height="1080" x="0" y="0" fill="#0e2a47"></rect><path d="M726.4847300987728 857.0662313374401L910.2886059907056 759.3359769497636 628.7544757110963 673.2623554455073z" fill="rgba(28, 83, 142, 0.4)" class="triangle-float2"></path><path d="M1369.203,1360.452C1473.978,1365.88,1557.626,1280.677,1606.958,1188.083C1653.125,1101.429,1658.628,997.055,1607.457,913.259C1558.237,832.657,1463.602,801.576,1369.203,798.743C1268.334,795.716,1152.876,809.436,1104.821,898.174C1057.989,984.654,1121.778,1080.105,1170.603,1165.476C1219.966,1251.788,1269.905,1355.308,1369.203,1360.452" fill="rgba(28, 83, 142, 0.4)" class="triangle-float3"></path><path d="M71.68030642735812 438.3117841214781L233.74207478065173 215.25289616041732 10.68318681959093 53.191127807123735-151.3785815337027 276.25001576818454z" fill="rgba(28, 83, 142, 0.4)" class="triangle-float1"></path><path d="M-169.96 1006.78 a191.6 191.6 0 1 0 383.2 0 a191.6 191.6 0 1 0 -383.2 0z" fill="rgba(28, 83, 142, 0.4)" class="triangle-float1"></path><path d="M1974.201265924853 133.16127047041547L1786.233006026412 162.93251811320704 2003.9725135676447 321.1295303688565z" fill="rgba(28, 83, 142, 0.4)" class="triangle-float3"></path><path d="M1333.5865496456402 108.67575185637746L1498.8075670926278 252.30019113154714 1477.2109889208098-56.545265590610185z" fill="rgba(28, 83, 142, 0.4)" class="triangle-float1"></path><path d="M620.8518270351765 30.71837857500914L649.5983412876154 304.22319196121714 923.1031546738234 275.4766777087782 894.3566404213846 1.9718643225702124z" fill="rgba(28, 83, 142, 0.4)" class="triangle-float2"></path><path d="M1100.288,984.792C1133.011,987.116,1170.618,984.449,1187.607,956.386C1204.964,927.715,1191.661,891.881,1173.642,863.622C1157.194,837.826,1130.876,819.97,1100.288,819.439C1068.749,818.891,1037.41,833.259,1022.387,860.996C1007.941,887.668,1015.944,919.669,1032.099,945.342C1047.089,969.163,1072.214,982.798,1100.288,984.792" fill="rgba(28, 83, 142, 0.4)" class="triangle-float3"></path><path d="M614.634,1016.646C720.847,1012.739,807.015,938.943,858.165,845.775C907.206,756.45,912.511,650.772,864.992,560.628C813.927,463.756,724.136,382.72,614.634,383.789C506.525,384.844,426.496,471.712,372.6,565.434C318.908,658.802,287.051,769.997,337.963,864.909C391.252,964.254,501.975,1020.79,614.634,1016.646" fill="rgba(28, 83, 142, 0.4)" class="triangle-float1"></path><path d="M222.37175798554966 496.36236424306594L289.95019859999957 790.3547507548736 485.9157974660955 613.9065329925926z" fill="rgba(28, 83, 142, 0.4)" class="triangle-float2"></path><path d="M1553.03 97.63 a213.97 213.97 0 1 0 427.94 0 a213.97 213.97 0 1 0 -427.94 0z" fill="rgba(28, 83, 142, 0.4)" class="triangle-float1"></path><path d="M814.02 466.73 a354.32 354.32 0 1 0 708.64 0 a354.32 354.32 0 1 0 -708.64 0z" fill="rgba(28, 83, 142, 0.4)" class="triangle-float3"></path></g><defs><mask id="SvgjsMask1050"><rect width="1920" height="1080" fill="#ffffff"></rect></mask><style>
                @keyframes float1 {
                    0%{transform: translate(0, 0)}
                    50%{transform: translate(-10px, 0)}
                    100%{transform: translate(0, 0)}
                }

                .triangle-float1 {
                    animation: float1 5s infinite;
                }

                @keyframes float2 {
                    0%{transform: translate(0, 0)}
                    50%{transform: translate(-5px, -5px)}
                    100%{transform: translate(0, 0)}
                }

                .triangle-float2 {
                    animation: float2 4s infinite;
                }

                @keyframes float3 {
                    0%{transform: translate(0, 0)}
                    50%{transform: translate(0, -10px)}
                    100%{transform: translate(0, 0)}
                }

                .triangle-float3 {
                    animation: float3 6s infinite;
                }
            </style></defs></svg>